<svg width="200" height="200" viewbox = "0 0 200 200"  xmlns="http://www.w3.org/2000/svg">
<!--<json>{
  "glyph": "0336,0332,0337,0321,0337,0337,0200,0331,0336,0336,0333,0320,0336,0332,0337,0362,0203,0203,0203,0203,0203,0203,0335,0203,0203,0335,0203,0203,0203,0203,0203,0203,0335,0203,0203,0354,0335,0333,0333,0336,0333,0337,0362,0203,0203,0203,0203,0203,0203,0335,0203,0336,0203,0335,0337,0203,0203,0203,0203,0203,0203,0335,0203,0336,0203,0354,0335,0332,0336,0330,0332,0337,0200,0330,0330,0200,0330,0330,0200,0330,0330,0200,0330,0330,0200,0330,0330,0200,0332,0332,0200,0331,0331,0200,0331,0331,0200,0331,0331,0200,0331,0331,0200,0331,0331,0200,0333,0333,0333,0333,0333,0200,0330,0330,0200,0330,0330,0200,0330,0330,0200,0330,0330,0200,0330,0330,0200,0330,0330,0334,0337,0337,0362,0203,0336,0203,0335,0203,0203,0335,0203,0203,0203,0203,0335,0203,0203,0335,0203,0336,0354,0335,0330,0333,0337,0331,0331,0331,0331,0331,0331,0331,0331,0333,0336,0330,0332,0337,0337,0336,0336,0333,0337,0362,0203,0203,0203,0203,0203,0203,0203,0203,0203,0336,0203,0334,0337,0203,0203,0203,0203,0203,0203,0203,0203,0203,0336,0203,0334,0337,0203,0203,0203,0203,0203,0203,0203,0203,0203,0336,0203,0334,0337,0203,0203,0203,0203,0203,0203,0203,0203,0203,0336,0203,0354,",
  "shapes": [
    "0220:0330,0336,0336,0347,0337,0337,",
    "0221:0336,0336,0333,0337,0200,0330,0330,0336,0332,0337,0337,",
    "0222:0336,0336,0336,0347,0337,0337,0337,0330,",
    "0223:0334,0336,0362,0203,0335,0203,0203,0335,0203,0203,0335,0203,0203,0335,0203,0363,0335,0330,0330,0337,",
    "0224:0304,0313,0336,0336,0334,0310,0350,0362,0203,0335,0335,0203,0203,0334,0334,0203,0335,0335,0335,0337,0203,0203,0335,0335,0203,0203,0335,0335,0335,0336,0203,0334,0334,0203,0203,0335,0335,0203,0363,0304,0335,0313,0337,0337,",
    "0225:0306,0201,0334,0334,0201,0334,0334,0201,0334,0334,",
    "0226:0331,0332,0337,0101,0365,",
    "0227:0336,0336,0341,0337,0337,0330,",
    "0230:",
    "0231:",
    "0232:",
    "0233:",
    "0234:",
    "0235:",
    "0236:",
    "0237:",
    "0240:0334,0336,0336,0366,0337,0337,0333,0335,0335,0336,0336,0367,0334,0337,0337,",
    "0241:",
    "0242:",
    "0243:",
    "0244:",
    "0245:",
    "0246:",
    "0247:",
    "01220:0333,0200,0336,0332,0220,0333,0331,0336,0331,0337,0337,",
    "01221:0333,0200,0336,0332,0221,0221,0333,0331,0331,0337,",
    "01222:0333,0200,0336,0332,0330,0332,0333,0222,0333,0331,0331,0337,",
    "01223:0333,0200,0336,0330,0332,0336,0333,0332,0223,0336,0333,0331,0333,0333,0331,0331,0333,0320,0331,0337,0337,0337,",
    "01224:0333,0200,0336,0332,0330,0224,0333,0331,0337,",
    "01225:0333,0200,0336,0336,0332,0332,0330,0337,0225,0304,0333,0331,0336,0330,0337,0337,",
    "01226:0333,0200,0336,0330,0332,0226,0333,0331,0330,",
    "01227:0333,0200,0336,0330,0332,0210,0227,0211,0331,0333,0337,",
    "01230:0333,0200,0336,0330,0332,0230,0331,0304,0333,0337,",
    "01231:0333,0200,0332,0336,0330,0333,0336,0336,0330,0332,0231,0333,0333,0331,0331,0331,0333,0333,0331,0331,0333,0337,0337,0337,0337,0336,",
    "01232:0333,0200,0336,0330,0332,0331,0232,0331,0331,0331,0333,0337,",
    "01233:0333,0200,0336,0332,0337,0336,0330,0332,0336,0331,0333,0337,0332,0233,0331,0336,0330,0337,0337,",
    "01234:0333,0200,0336,0330,0332,0332,0332,0336,0333,0337,0234,0333,0333,0333,0331,0336,0333,0331,0337,0337,0337,0210,0210,0337,0336,",
    "01235:0333,0200,0235,",
    "01236:0333,0200,0236,",
    "01237:0333,0200,0336,0330,0332,0332,0237,0331,0336,0332,0337,0337,",
    "01240:0333,0200,0336,0332,0336,0330,0337,0240,0333,0336,0330,0337,0337,0331,",
    "01241:0333,0200,0336,0332,0241,0333,0337,",
    "01242:0333,0200,0336,0332,0332,0336,0330,0330,0242,0336,0331,0331,0331,0331,0332,0337,0337,0337,",
    "01243:0333,0200,0336,0332,0332,0243,0337,",
    "01244:0333,0200,0332,0336,0330,0336,0336,0243,0243,0243,0243,0331,0331,0331,0331,0337,0337,0337,",
    "01245:0333,0200,0336,0332,0336,0331,0337,0245,0333,0336,0330,0337,0337,",
    "01246:0333,0200,0330,0332,0336,0331,0336,0332,0337,0246,0333,0333,0336,0333,0331,0331,0337,0337,",
    "01247:0333,0200,0336,0330,0332,0337,0247,0336,0333,0331,0337,"
  ],
  "x0rel": 0.5,
  "y0rel": 0.5,
  "unitrel": 0.1,
  "theta0": -1.570796,
  "width": 200,
  "height": 200,
  "scale": 1,
  "backgroundimage": "",
  "style": {
    "color0": "black",
    "fill0": "black",
    "line0": 2,
    "color1": "black",
    "fill1": "black",
    "line1": 3,
    "color2": "red",
    "fill2": "red",
    "line2": 10,
    "color3": "#FF7900",
    "fill3": "#FF7900",
    "line3": 1,
    "color4": "yellow",
    "fill4": "yellow",
    "line4": 1,
    "color5": "green",
    "fill5": "green",
    "line5": 8,
    "color6": "blue",
    "fill6": "blue",
    "line6": 1,
    "color7": "purple",
    "fill7": "purple",
    "line7": 1
  },
  "controlbuttons": [
    196,
    198,
    200,
    203,
    128,
    216,
    217,
    218,
    219,
    220,
    221,
    222,
    223,
    27,
    8,
    134,
    225,
    192,
    16,
    17,
    145,
    151,
    146
  ]
}</json>-->	<path d = "M90 100 L90 20 L10 20 L10 100 L90 100 Z" stroke = "#000000" stroke-width = "3" fill = "none" />	<path d = "M100 180 L100 160 L100 140 L100 120 L100 100 L100 80 L100 60 L120 60 L140 60 L140 80 L140 100 L140 120 L140 140 L140 160 L140 180 L120 180 L100 180 Z" stroke = "#000000" stroke-width = "2" fill = "none" />	<path d = "M150 180 L150 160 L150 140 L150 120 L150 100 L150 80 L150 60 L170 60 L180 60 L180 80 L180 100 L180 120 L180 140 L180 160 L180 180 L160 180 L150 180 Z" stroke = "#000000" stroke-width = "2" fill = "none" />	<path d = "M135 175 L135 165 L125 165 L125 175 L135 175 Z" stroke = "#000000" stroke-width = "2" fill = "none" />	<path d = "M135 155 L135 145 L125 145 L125 155 L135 155 Z" stroke = "#000000" stroke-width = "2" fill = "none" />	<path d = "M135 135 L135 125 L125 125 L125 135 L135 135 Z" stroke = "#000000" stroke-width = "2" fill = "none" />	<path d = "M135 115 L135 105 L125 105 L125 115 L135 115 Z" stroke = "#000000" stroke-width = "2" fill = "none" />	<path d = "M135 95 L135 85 L125 85 L125 95 L135 95 Z" stroke = "#000000" stroke-width = "2" fill = "none" />	<path d = "M135 75 L135 65 L125 65 L125 75 L135 75 Z" stroke = "#000000" stroke-width = "2" fill = "none" />	<path d = "M115 75 L115 65 L105 65 L105 75 L115 75 Z" stroke = "#000000" stroke-width = "2" fill = "none" />	<path d = "M115 95 L115 85 L105 85 L105 95 L115 95 Z" stroke = "#000000" stroke-width = "2" fill = "none" />	<path d = "M115 115 L115 105 L105 105 L105 115 L115 115 Z" stroke = "#000000" stroke-width = "2" fill = "none" />	<path d = "M115 135 L115 125 L105 125 L105 135 L115 135 Z" stroke = "#000000" stroke-width = "2" fill = "none" />	<path d = "M115 155 L115 145 L105 145 L105 155 L115 155 Z" stroke = "#000000" stroke-width = "2" fill = "none" />	<path d = "M115 175 L115 165 L105 165 L105 175 L115 175 Z" stroke = "#000000" stroke-width = "2" fill = "none" />	<path d = "M165 175 L165 165 L155 165 L155 175 L165 175 Z" stroke = "#000000" stroke-width = "2" fill = "none" />	<path d = "M165 155 L165 145 L155 145 L155 155 L165 155 Z" stroke = "#000000" stroke-width = "2" fill = "none" />	<path d = "M165 135 L165 125 L155 125 L155 135 L165 135 Z" stroke = "#000000" stroke-width = "2" fill = "none" />	<path d = "M165 115 L165 105 L155 105 L155 115 L165 115 Z" stroke = "#000000" stroke-width = "2" fill = "none" />	<path d = "M165 95 L165 85 L155 85 L155 95 L165 95 Z" stroke = "#000000" stroke-width = "2" fill = "none" />	<path d = "M165 75 L165 65 L155 65 L155 75 L165 75 Z" stroke = "#000000" stroke-width = "2" fill = "none" />	<path d = "M165 55 L125 55 L105 55 L105 35 L105 15 L125 15 L145 15 L165 15 L185 15 L185 35 L185 55 L165 55 Z" stroke = "#000000" stroke-width = "2" fill = "none" />	<path d = "M195 195 L195 175 L195 155 L195 135 L195 115 L195 95 L195 75 L195 55 L195 35 L195 15 L195 5 L175 5 L155 5 L135 5 L115 5 L95 5 L75 5 L55 5 L35 5 L15 5 L5 5 L5 25 L5 45 L5 65 L5 85 L5 105 L5 125 L5 145 L5 165 L5 185 L5 195 L25 195 L45 195 L65 195 L85 195 L105 195 L125 195 L145 195 L165 195 L185 195 L195 195 Z" stroke = "#000000" stroke-width = "2" fill = "none" /></svg>