<svg width="712.3" height="335.2" viewbox = "0 0 712.3 335.2"  xmlns="http://www.w3.org/2000/svg">
	<path d = "M105 105 L105 21 L21 21 L21 105 L105 105 Z" stroke = "#000000" stroke-width = "2" fill = "none" />	<path d = "M94 84 L94 42 L26 42 L26 84 L94 84 Z" stroke = "#000000" stroke-width = "2" fill = "none" />	<path d = "M189 105 L189 21 L105 21 L105 105 L189 105 Z" stroke = "#000000" stroke-width = "2" fill = "none" />	<path d = "M168 84 L126 84 L147 19 L168 84 Z" stroke = "#000000" stroke-width = "2" fill = "none" />	<path d = "M272 105 L272 21 L189 21 L189 105 L272 105 Z" stroke = "#000000" stroke-width = "2" fill = "none" />	<path d = "M209 84 L209 42 L249 29 L209 84 Z" stroke = "#000000" stroke-width = "2" fill = "none" />	<path d = "M356 105 L356 21 L272 21 L272 105 L356 105 Z" stroke = "#000000" stroke-width = "2" fill = "none" />	<path d = "M335 84 L293 84 L280 44 L314 19 L348 44 L335 84 Z" stroke = "#000000" stroke-width = "2" fill = "none" />	<path d = "M440 105 L440 21 L356 21 L356 105 L440 105 Z" stroke = "#000000" stroke-width = "2" fill = "none" />	<path d = "M377 84 L419 84 L432 44 L398 19 L364 44 L377 84 Z" stroke = "#000000" stroke-width = "2" fill = "none" />	<path d = "M377 84 L398 19 L419 84 L364 44 L432 44 L377 84 Z" stroke = "#000000" stroke-width = "2" fill = "none" />	<path d = "M524 105 L524 21 L440 21 L440 105 L524 105 Z" stroke = "#000000" stroke-width = "2" fill = "none" />	<path d = "M503 84 L503 42 L461 42 L461 84 L503 84 Z" stroke = "#000000" stroke-width = "2" fill = "none" />  <path d="M460.90000000000003 83.79999999999995           A41.9 41.9 0 0 1 502.8000000000001 41.899999999999984" fill = "none" stroke = "#000000" stroke-width = "2" />
	<path d = "M587 84 L587 42 L545 42 L545 84 L587 84 Z" stroke = "#000000" stroke-width = "2" fill = "none" />	<path d = "M571 73 L571 52 L550 52 L550 73 L571 73 Z" stroke = "#000000" stroke-width = "2" fill = "none" />  <path d="M549.9374999999999 73.32500000000005           A20.95 20.95 0 0 1 570.8874999999999 52.374999999999986" fill = "none" stroke = "#000000" stroke-width = "2" />
	<path d = "M571 65 L584 65 L584 52 L571 52 L571 65 Z" stroke = "#000000" stroke-width = "2" fill = "none" />  <path d="M570.8874999999999 52.37500000000003           A12.947812064310297 12.947812064310297 0 0 1 583.8353120643103 65.32281206431024" fill = "none" stroke = "#000000" stroke-width = "2" />
	<path d = "M576 65 L576 73 L584 73 L584 65 L576 65 Z" stroke = "#000000" stroke-width = "2" fill = "none" />  <path d="M583.8353120643102 65.32281206431021           A8.002187935689703 8.002187935689703 0 0 1 575.8331241286206 73.32500000000002" fill = "none" stroke = "#000000" stroke-width = "2" />
	<path d = "M576 68 L571 68 L571 73 L576 73 L576 68 Z" stroke = "#000000" stroke-width = "2" fill = "none" />  <path d="M575.8331241286205 73.32499999999999           A4.945624128620594 4.945624128620594 0 0 1 570.8874999999999 68.37937587137948" fill = "none" stroke = "#000000" stroke-width = "2" />
	<path d = "M574 68 L574 65 L571 65 L571 68 L574 68 Z" stroke = "#000000" stroke-width = "2" fill = "none" />  <path d="M570.8874999999999 68.37937587137947           A3.0565638070691086 3.0565638070691086 0 0 1 573.9440638070689 65.32281206431031" fill = "none" stroke = "#000000" stroke-width = "2" />
	<path d = "M574 67 L576 67 L576 65 L574 65 L574 67 Z" stroke = "#000000" stroke-width = "2" fill = "none" />  <path d="M573.9440638070689 65.32281206431031           A1.8890603215514852 1.8890603215514852 0 0 1 575.8331241286204 67.21187238586174" fill = "none" stroke = "#000000" stroke-width = "2" />
	<path d = "M575 67 L575 68 L576 68 L576 67 L575 67 Z" stroke = "#000000" stroke-width = "2" fill = "none" />  <path d="M575.8331241286204 67.21187238586174           A1.1675034855176234 1.1675034855176234 0 0 1 574.6656206431028 68.3793758713794" fill = "none" stroke = "#000000" stroke-width = "2" />
	<path d = "M575 68 L574 68 L574 68 L575 68 L575 68 Z" stroke = "#000000" stroke-width = "2" fill = "none" />  <path d="M574.6656206431028 68.3793758713794           A0.7215568360338619 0.7215568360338619 0 0 1 573.9440638070689 67.65781903534557" fill = "none" stroke = "#000000" stroke-width = "2" />
	<path d = "M574 68 L574 67 L574 67 L574 68 L574 68 Z" stroke = "#000000" stroke-width = "2" fill = "none" />  <path d="M573.9440638070689 67.65781903534557           A0.4459466494837615 0.4459466494837615 0 0 1 574.3900104565527 67.2118723858618" fill = "none" stroke = "#000000" stroke-width = "2" />
	<path d = "M574 67 L575 67 L575 67 L574 67 L574 67 Z" stroke = "#000000" stroke-width = "2" fill = "none" />  <path d="M574.3900104565527 67.2118723858618           A0.27561018655010033 0.27561018655010033 0 0 1 574.6656206431028 67.48748257241188" fill = "none" stroke = "#000000" stroke-width = "2" />
	<path d = "M574 67 L574 68 L575 68 L575 67 L574 67 Z" stroke = "#000000" stroke-width = "2" fill = "none" />  <path d="M574.6656206431028 67.48748257241189           A0.17033646293366111 0.17033646293366111 0 0 1 574.4952841801692 67.65781903534555" fill = "none" stroke = "#000000" stroke-width = "2" />
	<path d = "M574 68 L574 68 L574 68 L574 68 L574 68 Z" stroke = "#000000" stroke-width = "2" fill = "none" />  <path d="M574.4952841801692 67.65781903534555           A0.10527372361643919 0.10527372361643919 0 0 1 574.3900104565528 67.55254531172912" fill = "none" stroke = "#000000" stroke-width = "2" />
	<path d = "M574 68 L574 67 L574 67 L574 68 L574 68 Z" stroke = "#000000" stroke-width = "2" fill = "none" />  <path d="M574.3900104565528 67.55254531172912           A0.06506273931722191 0.06506273931722191 0 0 1 574.45507319587 67.48748257241189" fill = "none" stroke = "#000000" stroke-width = "2" />
	<path d = "M613 73 L613 52 L592 52 L592 73 L613 73 Z" stroke = "#000000" stroke-width = "2" fill = "none" />	<path d = "M597 68 L602 52 L608 68 L594 58 L611 58 L597 68 Z" stroke = "#000000" stroke-width = "2" fill = "none" />	<path d = "M105 210 L105 126 L21 126 L21 210 L105 210 Z" stroke = "#000000" stroke-width = "2" fill = "none" />	<path d = "M87 160 L63 168 L78 147 " stroke = "#ff0000" stroke-width = "1" fill = "none" />	<path d = "M78 147 L63 126 L87 134 " stroke = "#ff7900" stroke-width = "1" fill = "none" />	<path d = "M87 134 L103 113 L103 139 " stroke = "#ffff00" stroke-width = "1" fill = "none" />	<path d = "M103 139 L127 147 L103 155 " stroke = "#008000" stroke-width = "1" fill = "none" />	<path d = "M103 155 L103 181 L87 160 " stroke = "#0000ff" stroke-width = "1" fill = "none" />	<path d = "M189 210 L189 126 L105 126 L105 210 L189 210 Z" stroke = "#0000ff" stroke-width = "1" fill = "none" />	<path d = "M142 155 L136 157 L140 152 " stroke = "#ff0000" stroke-width = "1" fill = "none" />	<path d = "M140 152 L136 147 L142 149 " stroke = "#ff7900" stroke-width = "1" fill = "none" />	<path d = "M142 149 L146 143 L146 150 " stroke = "#ffff00" stroke-width = "1" fill = "none" />	<path d = "M146 150 L152 152 L146 154 " stroke = "#008000" stroke-width = "1" fill = "none" />	<path d = "M146 154 L146 160 L142 155 " stroke = "#0000ff" stroke-width = "1" fill = "none" />	<path d = "M272 210 L272 126 L189 126 L189 210 L272 210 Z" stroke = "#0000ff" stroke-width = "1" fill = "none" />	<path d = "M356 210 L356 126 L272 126 L272 210 L356 210 Z" stroke = "#0000ff" stroke-width = "1" fill = "none" />	<path d = "M440 210 L440 126 L356 126 L356 210 L440 210 Z" stroke = "#0000ff" stroke-width = "1" fill = "none" />	<path d = "M524 210 L524 126 L440 126 L440 210 L524 210 Z" stroke = "#0000ff" stroke-width = "1" fill = "none" />	<path d = "M608 210 L608 126 L524 126 L524 210 L608 210 Z" stroke = "#0000ff" stroke-width = "1" fill = "none" />	<path d = "M691 210 L691 126 L608 126 L608 210 L691 210 Z" stroke = "#0000ff" stroke-width = "1" fill = "none" />	<path d = "M105 314 L105 230 L21 230 L21 314 L105 314 Z" stroke = "#0000ff" stroke-width = "1" fill = "none" /><path    d = "M63,293 C52,293 73,251 63,251" fill = "none" stroke-width = "1" stroke = "#0000ff" />	<path d = "M189 314 L189 230 L105 230 L105 314 L189 314 Z" stroke = "#0000ff" stroke-width = "1" fill = "none" />	<path d = "M272 314 L272 230 L189 230 L189 314 L272 314 Z" stroke = "#0000ff" stroke-width = "1" fill = "none" />	<path d = "M356 314 L356 230 L272 230 L272 314 L356 314 Z" stroke = "#0000ff" stroke-width = "1" fill = "none" />	<path d = "M440 314 L440 230 L356 230 L356 314 L440 314 Z" stroke = "#0000ff" stroke-width = "1" fill = "none" />	<path d = "M524 314 L524 230 L440 230 L440 314 L524 314 Z" stroke = "#0000ff" stroke-width = "1" fill = "none" />	<path d = "M608 314 L608 230 L524 230 L524 314 L608 314 Z" stroke = "#0000ff" stroke-width = "1" fill = "none" />	<path d = "M691 314 L691 230 L608 230 L608 314 L691 314 Z" stroke = "#0000ff" stroke-width = "1" fill = "none" /></svg>