<svg width="650" height="400" viewbox = "0 0 650 400"  xmlns="http://www.w3.org/2000/svg">
<!--<json>{
  "glyph": "0333,0331,0331,0331,0333,0336,0336,0332,0332,0332,0337,0337,0211,0211,0211,0211,0211,0211,0337,0211,0211,0322,0225,0323,0225,0324,0225,0325,0225,0326,0225,0327,0225,0322,0225,0323,0225,0324,0225,0325,0225,",
  "shapes": [
    "0220:0311,0362,0203,0334,0337,0203,0334,0336,0203,0334,0337,0203,0354,0334,0336,",
    "0221:0334,0311,0305,0362,0203,0335,0350,0335,0337,0203,0335,0335,0335,0335,0203,0354,0335,0335,0335,0336,0305,",
    "0222:0311,0305,0362,0203,0335,0203,0335,0335,0337,0203,0354,0335,0335,0336,",
    "0223:0334,0305,0362,0203,0335,0203,0335,0203,0335,0203,0335,0203,0335,0354,",
    "0224:0304,0335,0305,0311,0362,0203,0334,0203,0334,0203,0334,0203,0334,0203,0354,0334,0334,0337,0362,0203,0335,0335,0203,0335,0335,0203,0335,0335,0203,0335,0335,0203,0354,0336,0335,0335,0335,",
    "0225:0311,0304,0200,0350,0334,0343,0335,0330,0336,0331,0304,0335,",
    "0226:0370,0225,0225,0225,0225,0225,0225,0225,0225,0225,0225,0225,0225,0225,0371,",
    "0227:0304,0335,0305,0311,0334,0337,0362,0203,0335,0335,0203,0335,0335,0203,0335,0335,0203,0335,0335,0203,0354,",
    "0230:",
    "0231:",
    "0232:",
    "0233:",
    "0234:",
    "0235:",
    "0236:",
    "0237:",
    "0240:0334,0336,0336,0366,0337,0337,0333,0335,0335,0336,0336,0367,0334,0337,0337,",
    "0241:",
    "0242:",
    "0243:",
    "0244:",
    "0245:",
    "0246:",
    "0247:",
    "01220:0333,0200,0336,0330,0332,0336,0331,0333,0336,0333,0337,0337,0220,0313,0336,0336,0333,0331,0331,0337,0337,0337,",
    "01221:0333,0200,0336,0330,0332,0331,0336,0330,0333,0337,0221,0304,0335,0313,0336,0333,0331,0337,0337,",
    "01222:0333,0200,0336,0330,0332,0336,0331,0332,0337,0222,0304,0313,0333,0336,0333,0331,0337,0337,",
    "01223:0333,0200,0336,0330,0332,0331,0336,0330,0333,0337,0223,0304,0313,0335,0336,0333,0331,0337,0337,",
    "01224:0333,0200,0336,0330,0332,0336,0331,0332,0337,0224,0304,0313,0336,0334,0333,0333,0333,0331,0337,0337,",
    "01225:0333,0200,0336,0330,0332,0336,0331,0333,0337,0370,0225,0371,0313,0336,0333,0331,0337,0337,",
    "01226:0333,0200,0336,0330,0332,0336,0331,0336,0333,0337,0337,0226,0313,0336,0331,0333,0336,0333,0337,0337,0337,",
    "01227:0333,0200,0336,0330,0332,0336,0331,0332,0337,0227,0334,0334,0304,0336,0313,0334,0333,0336,0333,0331,0337,0337,",
    "01230:0333,0200,0336,0330,0332,0230,0331,0304,0333,0337,",
    "01231:0333,0200,0332,0336,0330,0333,0336,0336,0330,0332,0231,0333,0333,0331,0331,0331,0333,0333,0331,0331,0333,0337,0337,0337,0337,0336,",
    "01232:0333,0200,0336,0330,0332,0331,0232,0331,0331,0331,0333,0337,",
    "01233:0333,0200,0336,0332,0337,0336,0330,0332,0336,0331,0333,0337,0332,0233,0331,0336,0330,0337,0337,",
    "01234:0333,0200,0336,0330,0332,0332,0332,0336,0333,0337,0234,0333,0333,0333,0331,0336,0333,0331,0337,0337,0337,0210,0210,0337,0336,",
    "01235:0333,0200,0235,",
    "01236:0333,0200,0236,",
    "01237:0333,0200,0336,0330,0332,0332,0237,0331,0336,0332,0337,0337,",
    "01240:0333,0200,0336,0332,0336,0330,0337,0240,0333,0336,0330,0337,0337,0331,",
    "01241:0333,0200,0336,0332,0241,0333,0337,",
    "01242:0333,0200,0336,0332,0332,0336,0330,0330,0242,0336,0331,0331,0331,0331,0332,0337,0337,0337,",
    "01243:0333,0200,0336,0332,0332,0243,0337,",
    "01244:0333,0200,0332,0336,0330,0336,0336,0243,0243,0243,0243,0331,0331,0331,0331,0337,0337,0337,",
    "01245:0333,0200,0336,0332,0336,0331,0337,0245,0333,0336,0330,0337,0337,",
    "01246:0333,0200,0330,0332,0336,0331,0336,0332,0337,0246,0333,0333,0336,0333,0331,0331,0337,0337,",
    "01247:0333,0200,0336,0330,0332,0337,0247,0336,0333,0331,0337,"
  ],
  "x0rel": 0.5,
  "y0rel": 0.5,
  "unitrel": 0.1,
  "theta0": -1.570796,
  "width": 650,
  "height": 400,
  "scale": 1,
  "backgroundimage": "",
  "style": {
    "color0": "black",
    "fill0": "black",
    "line0": 2,
    "color1": "black",
    "fill1": "black",
    "line1": 3,
    "color2": "red",
    "fill2": "red",
    "line2": 1,
    "color3": "#FF7900",
    "fill3": "#FF7900",
    "line3": 1,
    "color4": "yellow",
    "fill4": "yellow",
    "line4": 1,
    "color5": "green",
    "fill5": "green",
    "line5": 1,
    "color6": "blue",
    "fill6": "blue",
    "line6": 1,
    "color7": "purple",
    "fill7": "purple",
    "line7": 1
  },
  "controlbuttons": [
    196,
    198,
    200,
    203,
    128,
    216,
    217,
    218,
    219,
    220,
    221,
    222,
    223,
    27,
    8,
    134,
    225,
    192,
    16,
    17,
    145,
    151,
    146
  ]
}</json>-->	<path d = "M406 395 L406 13 L25 13 L25 395 L406 395 Z" stroke = "#ff0000" stroke-width = "1" fill = "none" />  <path d="M24.547886944560275 394.99990181379314           A381.70204933045073 381.70204933045073 0 0 1 406.2500610132729 13.297977221644828" fill = "none" stroke = "#ff0000" stroke-width = "1" />
	<path d = "M406 249 L642 249 L642 13 L406 13 L406 249 Z" stroke = "#ff7900" stroke-width = "1" fill = "none" />  <path d="M406.2500610132725 13.297977221644999           A235.9048400617076 235.9048400617076 0 0 1 642.1548239824699 249.202894375838" fill = "none" stroke = "#ff7900" stroke-width = "1" />
	<path d = "M496 249 L496 395 L642 395 L642 249 L496 249 Z" stroke = "#ffff00" stroke-width = "1" fill = "none" />  <path d="M642.15482398247 249.20289437583804           A145.79720926874313 145.79720926874313 0 0 1 496.35756706795036 395.0000559987893" fill = "none" stroke = "#ffff00" stroke-width = "1" />
	<path d = "M496 305 L406 305 L406 395 L496 395 L496 305 Z" stroke = "#008000" stroke-width = "1" fill = "none" />  <path d="M496.35756706795064 395.0000559987892           A90.10763079296446 90.10763079296446 0 0 1 406.24996572170454 304.8923957591159" fill = "none" stroke = "#008000" stroke-width = "1" />
	<path d = "M462 305 L462 249 L406 249 L406 305 L462 305 Z" stroke = "#0000ff" stroke-width = "1" fill = "none" />  <path d="M406.2499657217047 304.8923957591161           A55.689578475778674 55.689578475778674 0 0 1 461.93956239655006 249.2028354824099" fill = "none" stroke = "#0000ff" stroke-width = "1" />
	<path d = "M462 284 L496 284 L496 249 L462 249 L462 284 Z" stroke = "#800080" stroke-width = "1" fill = "none" />  <path d="M461.9395623965502 249.20283548241008           A34.41805231718578 34.41805231718578 0 0 1 496.3576034660905 283.6208990472376" fill = "none" stroke = "#800080" stroke-width = "1" />
	<path d = "M475 284 L475 305 L496 305 L496 284 L475 284 Z" stroke = "#ff0000" stroke-width = "1" fill = "none" />  <path d="M496.3576034660904 283.6208990472376           A21.27152615859289 21.27152615859289 0 0 1 475.0860703560728 304.8924182544034" fill = "none" stroke = "#ff0000" stroke-width = "1" />
	<path d = "M475 292 L462 292 L462 305 L475 305 L475 292 Z" stroke = "#ff7900" stroke-width = "1" fill = "none" />  <path d="M475.08607035607275 304.89241825440337           A13.146526158592893 13.146526158592893 0 0 1 461.939548493698 291.74588779959385" fill = "none" stroke = "#ff7900" stroke-width = "1" />
	<path d = "M470 292 L470 284 L462 284 L462 292 L470 292 Z" stroke = "#ffff00" stroke-width = "1" fill = "none" />  <path d="M461.939548493698 291.74588779959385           A8.124999999999998 8.124999999999998 0 0 1 470.0645511489059 283.62089045480263" fill = "none" stroke = "#ffff00" stroke-width = "1" />
	<path d = "M470 289 L475 289 L475 284 L470 284 L470 289 Z" stroke = "#008000" stroke-width = "1" fill = "none" />  <path d="M470.0645511489059 283.62089045480263           A5.021526158592894 5.021526158592894 0 0 1 475.08607566648953 288.6424182544042" fill = "none" stroke = "#008000" stroke-width = "1" />
</svg>