<svg width="500" height="500" viewbox = "0 0 500 500"  xmlns="http://www.w3.org/2000/svg">
<!--<json>{
  "glyph": "0331,0331,0331,0332,0332,0332,0332,0334,0331,0331,0331,0331,0331,0331,0331,0332,0210,0210,0210,0337,0337,0337,0230,0230,0230,0230,0230,0230,",
  "shapes": [
    "0220:0311,0362,0203,0334,0337,0203,0334,0336,0203,0334,0337,0203,0354,0334,0336,",
    "0221:0334,0311,0305,0362,0203,0335,0350,0335,0337,0203,0335,0335,0335,0335,0203,0354,0335,0335,0335,0336,0305,",
    "0222:0311,0305,0362,0203,0335,0203,0335,0335,0337,0203,0354,0335,0335,0336,",
    "0223:0334,0305,0362,0203,0335,0203,0335,0203,0335,0203,0335,0203,0335,0354,",
    "0224:0304,0335,0305,0311,0362,0203,0334,0203,0334,0203,0334,0203,0334,0203,0354,0334,0334,0337,0362,0203,0335,0335,0203,0335,0335,0203,0335,0335,0203,0335,0335,0203,0354,0336,0335,0335,0335,",
    "0225:0311,0304,0200,0350,0334,0343,0335,0330,0336,0331,0304,0335,",
    "0226:0370,0225,0225,0225,0225,0225,0225,0225,0225,0225,0225,0225,0225,0225,0371,",
    "0227:0304,0335,0305,0311,0334,0337,0362,0203,0335,0335,0203,0335,0335,0203,0335,0335,0203,0335,0335,0203,0354,",
    "0230:0305,0321,0311,0362,0203,0335,0203,0335,0203,0335,0203,0335,0203,0335,0354,0350,0335,0335,0336,0330,0335,0335,0335,0335,0335,0322,0362,0203,0335,0335,0335,0335,0203,0364,0323,0334,0334,0362,0203,0335,0335,0335,0335,0203,0364,0324,0334,0334,0362,0203,0335,0335,0335,0335,0203,0364,0325,0334,0334,0362,0203,0335,0335,0335,0335,0203,0364,0334,0334,0326,0362,0203,0335,0335,0335,0335,0203,0364,0336,0305,",
    "0231:0230,",
    "0232:",
    "0233:",
    "0234:",
    "0235:",
    "0236:",
    "0237:",
    "0240:0334,0336,0336,0366,0337,0337,0333,0335,0335,0336,0336,0367,0334,0337,0337,",
    "0241:",
    "0242:",
    "0243:",
    "0244:",
    "0245:",
    "0246:",
    "0247:",
    "01220:0333,0200,0336,0330,0332,0336,0331,0333,0336,0333,0337,0337,0220,0313,0336,0336,0333,0331,0331,0337,0337,0337,",
    "01221:0333,0200,0336,0330,0332,0331,0336,0330,0333,0337,0221,0304,0335,0313,0336,0333,0331,0337,0337,",
    "01222:0333,0200,0336,0330,0332,0336,0331,0332,0337,0222,0304,0313,0333,0336,0333,0331,0337,0337,",
    "01223:0333,0200,0336,0330,0332,0331,0336,0330,0333,0337,0223,0304,0313,0335,0336,0333,0331,0337,0337,",
    "01224:0333,0200,0336,0330,0332,0336,0331,0332,0337,0224,0304,0313,0336,0334,0333,0333,0333,0331,0337,0337,",
    "01225:0333,0200,0336,0330,0332,0336,0331,0333,0337,0370,0225,0371,0313,0336,0333,0331,0337,0337,",
    "01226:0333,0200,0336,0330,0332,0336,0331,0336,0333,0337,0337,0226,0313,0336,0331,0333,0336,0333,0337,0337,0337,",
    "01227:0333,0200,0336,0330,0332,0336,0331,0332,0337,0227,0334,0334,0304,0336,0313,0334,0333,0336,0333,0331,0337,0337,",
    "01230:0333,0200,0336,0330,0332,0230,0331,0304,0333,0337,",
    "01231:0333,0200,0332,0336,0330,0333,0336,0336,0330,0332,0231,0333,0333,0331,0331,0331,0333,0333,0331,0331,0333,0337,0337,0337,0337,0336,",
    "01232:0333,0200,0336,0330,0332,0331,0232,0331,0331,0331,0333,0337,",
    "01233:0333,0200,0336,0332,0337,0336,0330,0332,0336,0331,0333,0337,0332,0233,0331,0336,0330,0337,0337,",
    "01234:0333,0200,0336,0330,0332,0332,0332,0336,0333,0337,0234,0333,0333,0333,0331,0336,0333,0331,0337,0337,0337,0210,0210,0337,0336,",
    "01235:0333,0200,0235,",
    "01236:0333,0200,0236,",
    "01237:0333,0200,0336,0330,0332,0332,0237,0331,0336,0332,0337,0337,",
    "01240:0333,0200,0336,0332,0336,0330,0337,0240,0333,0336,0330,0337,0337,0331,",
    "01241:0333,0200,0336,0332,0241,0333,0337,",
    "01242:0333,0200,0336,0332,0332,0336,0330,0330,0242,0336,0331,0331,0331,0331,0332,0337,0337,0337,",
    "01243:0333,0200,0336,0332,0332,0243,0337,",
    "01244:0333,0200,0332,0336,0330,0336,0336,0243,0243,0243,0243,0331,0331,0331,0331,0337,0337,0337,",
    "01245:0333,0200,0336,0332,0336,0331,0337,0245,0333,0336,0330,0337,0337,",
    "01246:0333,0200,0330,0332,0336,0331,0336,0332,0337,0246,0333,0333,0336,0333,0331,0331,0337,0337,",
    "01247:0333,0200,0336,0330,0332,0337,0247,0336,0333,0331,0337,"
  ],
  "x0rel": 0.5,
  "y0rel": 0.5,
  "unitrel": 0.1,
  "theta0": -1.570796,
  "width": 500,
  "height": 500,
  "scale": 1,
  "backgroundimage": "",
  "style": {
    "color0": "black",
    "fill0": "black",
    "line0": 2,
    "color1": "black",
    "fill1": "black",
    "line1": 3,
    "color2": "red",
    "fill2": "red",
    "line2": 1,
    "color3": "#FF7900",
    "fill3": "#FF7900",
    "line3": 1,
    "color4": "yellow",
    "fill4": "yellow",
    "line4": 1,
    "color5": "green",
    "fill5": "green",
    "line5": 1,
    "color6": "blue",
    "fill6": "blue",
    "line6": 1,
    "color7": "purple",
    "fill7": "purple",
    "line7": 1
  },
  "controlbuttons": [
    196,
    198,
    200,
    203,
    128,
    216,
    217,
    218,
    219,
    220,
    221,
    222,
    223,
    27,
    8,
    134,
    225,
    192,
    16,
    17,
    145,
    151,
    146
  ]
}</json>-->	<path d = "M400 450 L133 450 L50 196 L266 39 L483 196 L400 450 Z" stroke = "#000000" stroke-width = "3" fill = "none" />	<path d = "M349 293 L400 450 L266 353 " stroke = "#ff0000" stroke-width = "1" fill = "none" />	<path d = "M266 353 L133 450 L184 293 " stroke = "#ff7900" stroke-width = "1" fill = "none" />	<path d = "M184 293 L50 196 L215 196 " stroke = "#ffff00" stroke-width = "1" fill = "none" />	<path d = "M215 196 L266 39 L317 196 " stroke = "#008000" stroke-width = "1" fill = "none" />	<path d = "M317 196 L483 196 L349 293 " stroke = "#0000ff" stroke-width = "1" fill = "none" />	<path d = "M349 293 L266 353 L184 293 L215 196 L317 196 L349 293 Z" stroke = "#000000" stroke-width = "3" fill = "none" />	<path d = "M298 256 L349 293 L286 293 " stroke = "#ff0000" stroke-width = "1" fill = "none" />	<path d = "M286 293 L266 353 L247 293 " stroke = "#ff7900" stroke-width = "1" fill = "none" />	<path d = "M247 293 L184 293 L235 256 " stroke = "#ffff00" stroke-width = "1" fill = "none" />	<path d = "M235 256 L215 196 L266 233 " stroke = "#008000" stroke-width = "1" fill = "none" />	<path d = "M266 233 L317 196 L298 256 " stroke = "#0000ff" stroke-width = "1" fill = "none" />	<path d = "M298 256 L286 293 L247 293 L235 256 L266 233 L298 256 Z" stroke = "#000000" stroke-width = "3" fill = "none" />	<path d = "M274 256 L298 256 L279 270 " stroke = "#ff0000" stroke-width = "1" fill = "none" />	<path d = "M279 270 L286 293 L266 279 " stroke = "#ff7900" stroke-width = "1" fill = "none" />	<path d = "M266 279 L247 293 L254 270 " stroke = "#ffff00" stroke-width = "1" fill = "none" />	<path d = "M254 270 L235 256 L259 256 " stroke = "#008000" stroke-width = "1" fill = "none" />	<path d = "M259 256 L266 233 L274 256 " stroke = "#0000ff" stroke-width = "1" fill = "none" />	<path d = "M274 256 L279 270 L266 279 L254 270 L259 256 L274 256 Z" stroke = "#000000" stroke-width = "3" fill = "none" />	<path d = "M266 261 L274 256 L271 265 " stroke = "#ff0000" stroke-width = "1" fill = "none" />	<path d = "M271 265 L279 270 L269 270 " stroke = "#ff7900" stroke-width = "1" fill = "none" />	<path d = "M269 270 L266 279 L264 270 " stroke = "#ffff00" stroke-width = "1" fill = "none" />	<path d = "M264 270 L254 270 L262 265 " stroke = "#008000" stroke-width = "1" fill = "none" />	<path d = "M262 265 L259 256 L266 261 " stroke = "#0000ff" stroke-width = "1" fill = "none" />	<path d = "M266 261 L271 265 L269 270 L264 270 L262 265 L266 261 Z" stroke = "#000000" stroke-width = "3" fill = "none" />	<path d = "M265 265 L266 261 L268 265 " stroke = "#ff0000" stroke-width = "1" fill = "none" />	<path d = "M268 265 L271 265 L268 267 " stroke = "#ff7900" stroke-width = "1" fill = "none" />	<path d = "M268 267 L269 270 L266 268 " stroke = "#ffff00" stroke-width = "1" fill = "none" />	<path d = "M266 268 L264 270 L265 267 " stroke = "#008000" stroke-width = "1" fill = "none" />	<path d = "M265 267 L262 265 L265 265 " stroke = "#0000ff" stroke-width = "1" fill = "none" />	<path d = "M265 265 L268 265 L268 267 L266 268 L265 267 L265 265 Z" stroke = "#000000" stroke-width = "3" fill = "none" />	<path d = "M266 266 L265 265 L266 265 " stroke = "#ff0000" stroke-width = "1" fill = "none" />	<path d = "M266 265 L268 265 L267 266 " stroke = "#ff7900" stroke-width = "1" fill = "none" />	<path d = "M267 266 L268 267 L267 267 " stroke = "#ffff00" stroke-width = "1" fill = "none" />	<path d = "M267 267 L266 268 L266 267 " stroke = "#008000" stroke-width = "1" fill = "none" />	<path d = "M266 267 L265 267 L266 266 " stroke = "#0000ff" stroke-width = "1" fill = "none" /></svg>