<svg width="650" height="400" viewbox = "0 0 650 400"  xmlns="http://www.w3.org/2000/svg">
<!--<json>{
  "glyph": "0326,0333,0331,0331,0331,0333,0336,0336,0332,0332,0332,0337,0337,0211,0211,0211,0337,0337,0226,",
  "shapes": [
    "0220:0311,0362,0203,0334,0337,0203,0334,0336,0203,0334,0337,0203,0354,0334,0336,",
    "0221:0334,0311,0305,0362,0203,0335,0350,0335,0337,0203,0335,0335,0335,0335,0203,0354,0335,0335,0335,0336,0305,",
    "0222:0311,0305,0362,0203,0335,0203,0335,0335,0337,0203,0354,0335,0335,0336,",
    "0223:0334,0305,0362,0203,0335,0203,0335,0203,0335,0203,0335,0203,0335,0354,",
    "0224:0304,0335,0305,0311,0362,0203,0334,0203,0334,0203,0334,0203,0334,0203,0354,0334,0334,0337,0362,0203,0335,0335,0203,0335,0335,0203,0335,0335,0203,0335,0335,0203,0354,0336,0335,0335,0335,",
    "0225:0311,0304,0200,0350,0334,0343,0335,0330,0336,0331,0304,0335,",
    "0226:0370,0225,0225,0225,0225,0225,0225,0225,0225,0225,0225,0225,0225,0225,0371,",
    "0227:0304,0335,0305,0311,0334,0337,0362,0203,0335,0335,0203,0335,0335,0203,0335,0335,0203,0335,0335,0203,0354,",
    "0230:",
    "0231:",
    "0232:",
    "0233:",
    "0234:",
    "0235:",
    "0236:",
    "0237:",
    "0240:0334,0336,0336,0366,0337,0337,0333,0335,0335,0336,0336,0367,0334,0337,0337,",
    "0241:",
    "0242:",
    "0243:",
    "0244:",
    "0245:",
    "0246:",
    "0247:",
    "01220:0333,0200,0336,0330,0332,0336,0331,0333,0336,0333,0337,0337,0220,0313,0336,0336,0333,0331,0331,0337,0337,0337,",
    "01221:0333,0200,0336,0330,0332,0331,0336,0330,0333,0337,0221,0304,0335,0313,0336,0333,0331,0337,0337,",
    "01222:0333,0200,0336,0330,0332,0336,0331,0332,0337,0222,0304,0313,0333,0336,0333,0331,0337,0337,",
    "01223:0333,0200,0336,0330,0332,0331,0336,0330,0333,0337,0223,0304,0313,0335,0336,0333,0331,0337,0337,",
    "01224:0333,0200,0336,0330,0332,0336,0331,0332,0337,0224,0304,0313,0336,0334,0333,0333,0333,0331,0337,0337,",
    "01225:0333,0200,0336,0330,0332,0336,0331,0333,0337,0370,0225,0371,0313,0336,0333,0331,0337,0337,",
    "01226:0333,0200,0336,0330,0332,0336,0331,0336,0333,0337,0337,0226,0313,0336,0331,0333,0336,0333,0337,0337,0337,",
    "01227:0333,0200,0336,0330,0332,0336,0331,0332,0337,0227,0334,0334,0304,0336,0313,0334,0333,0336,0333,0331,0337,0337,",
    "01230:0333,0200,0336,0330,0332,0230,0331,0304,0333,0337,",
    "01231:0333,0200,0332,0336,0330,0333,0336,0336,0330,0332,0231,0333,0333,0331,0331,0331,0333,0333,0331,0331,0333,0337,0337,0337,0337,0336,",
    "01232:0333,0200,0336,0330,0332,0331,0232,0331,0331,0331,0333,0337,",
    "01233:0333,0200,0336,0332,0337,0336,0330,0332,0336,0331,0333,0337,0332,0233,0331,0336,0330,0337,0337,",
    "01234:0333,0200,0336,0330,0332,0332,0332,0336,0333,0337,0234,0333,0333,0333,0331,0336,0333,0331,0337,0337,0337,0210,0210,0337,0336,",
    "01235:0333,0200,0235,",
    "01236:0333,0200,0236,",
    "01237:0333,0200,0336,0330,0332,0332,0237,0331,0336,0332,0337,0337,",
    "01240:0333,0200,0336,0332,0336,0330,0337,0240,0333,0336,0330,0337,0337,0331,",
    "01241:0333,0200,0336,0332,0241,0333,0337,",
    "01242:0333,0200,0336,0332,0332,0336,0330,0330,0242,0336,0331,0331,0331,0331,0332,0337,0337,0337,",
    "01243:0333,0200,0336,0332,0332,0243,0337,",
    "01244:0333,0200,0332,0336,0330,0336,0336,0243,0243,0243,0243,0331,0331,0331,0331,0337,0337,0337,",
    "01245:0333,0200,0336,0332,0336,0331,0337,0245,0333,0336,0330,0337,0337,",
    "01246:0333,0200,0330,0332,0336,0331,0336,0332,0337,0246,0333,0333,0336,0333,0331,0331,0337,0337,",
    "01247:0333,0200,0336,0330,0332,0337,0247,0336,0333,0331,0337,"
  ],
  "x0rel": 0.5,
  "y0rel": 0.5,
  "unitrel": 0.1,
  "theta0": -1.570796,
  "width": 650,
  "height": 400,
  "scale": 1,
  "backgroundimage": "",
  "style": {
    "color0": "black",
    "fill0": "black",
    "line0": 2,
    "color1": "black",
    "fill1": "black",
    "line1": 3,
    "color2": "red",
    "fill2": "red",
    "line2": 10,
    "color3": "#FF7900",
    "fill3": "#FF7900",
    "line3": 1,
    "color4": "yellow",
    "fill4": "yellow",
    "line4": 1,
    "color5": "green",
    "fill5": "green",
    "line5": 8,
    "color6": "blue",
    "fill6": "blue",
    "line6": 1,
    "color7": "purple",
    "fill7": "purple",
    "line7": 1
  },
  "controlbuttons": [
    196,
    198,
    200,
    203,
    128,
    216,
    217,
    218,
    219,
    220,
    221,
    222,
    223,
    27,
    8,
    134,
    225,
    192,
    16,
    17,
    145,
    151,
    146
  ]
}</json>-->	<path d = "M406 395 L406 6 L17 6 L17 395 L406 395 Z" stroke = "#0000ff" stroke-width = "1" fill = "none" />  <path d="M16.854125255564497 394.99989929951107           A389.39581101944697 389.39581101944697 0 0 1 406.250063527555 5.604215532648993" fill = "none" stroke = "#0000ff" stroke-width = "1" />
	<path d = "M406 246 L647 246 L647 6 L406 6 L406 246 Z" stroke = "#0000ff" stroke-width = "1" fill = "none" />  <path d="M406.2500635275546 5.604215532649192           A240.65984628684905 240.65984628684905 0 0 1 646.9098311679815 246.26414046589517" fill = "none" stroke = "#0000ff" stroke-width = "1" />
	<path d = "M498 246 L498 395 L647 395 L647 246 L498 246 Z" stroke = "#0000ff" stroke-width = "1" fill = "none" />  <path d="M646.9098311679815 246.26414046589517           A148.7359647325979 148.7359647325979 0 0 1 498.17381782923684 395.0000565923308" fill = "none" stroke = "#0000ff" stroke-width = "1" />
	<path d = "M498 303 L406 303 L406 395 L498 395 L498 303 Z" stroke = "#0000ff" stroke-width = "1" fill = "none" />  <path d="M498.1738178292371 395.0000565923306           A91.92388155425115 91.92388155425115 0 0 1 406.2499663152459 303.07614499782926" fill = "none" stroke = "#0000ff" stroke-width = "1" />
	<path d = "M463 303 L463 246 L406 246 L406 303 L463 303 Z" stroke = "#0000ff" stroke-width = "1" fill = "none" />  <path d="M406.24996631524607 303.0761449978295           A56.812083178346725 56.812083178346725 0 0 1 463.0620680594882 246.2640803853841" fill = "none" stroke = "#0000ff" stroke-width = "1" />
	<path d = "M463 281 L498 281 L498 246 L463 246 L463 281 Z" stroke = "#0000ff" stroke-width = "1" fill = "none" />  <path d="M463.0620680594883 246.2640803853842           A35.11179837590443 35.11179837590443 0 0 1 498.1738549610346 281.37589023564294" fill = "none" stroke = "#0000ff" stroke-width = "1" />
	<path d = "M476 281 L476 303 L498 303 L498 281 L476 281 Z" stroke = "#0000ff" stroke-width = "1" fill = "none" />  <path d="M498.17385496103446 281.3758902356429           A21.700284802442294 21.700284802442294 0 0 1 476.4735630670514 303.076167946542" fill = "none" stroke = "#0000ff" stroke-width = "1" />
	<path d = "M476 290 L463 290 L463 303 L476 303 L476 290 Z" stroke = "#0000ff" stroke-width = "1" fill = "none" />  <path d="M476.4735630670513 303.07616794654194           A13.411513573462134 13.411513573462134 0 0 1 463.06205387640387 289.66464999026664" fill = "none" stroke = "#0000ff" stroke-width = "1" />
	<path d = "M471 290 L471 281 L463 281 L463 290 L471 290 Z" stroke = "#0000ff" stroke-width = "1" fill = "none" />  <path d="M463.06205387640387 289.6646499902666           A8.288771228980158 8.288771228980158 0 0 1 471.3508278141115 281.3758814700148" fill = "none" stroke = "#0000ff" stroke-width = "1" />
	<path d = "M471 286 L476 286 L476 281 L471 281 L471 286 Z" stroke = "#0000ff" stroke-width = "1" fill = "none" />  <path d="M471.35082781411154 281.3758814700148           A5.122742344481975 5.122742344481975 0 0 1 476.4735684845073 286.4986254885824" fill = "none" stroke = "#0000ff" stroke-width = "1" />
	<path d = "M473 286 L473 290 L476 290 L476 286 L473 286 Z" stroke = "#0000ff" stroke-width = "1" fill = "none" />  <path d="M476.4735684845073 286.4986254885824           A3.166028884498183 3.166028884498183 0 0 1 473.30753856536734 289.6646533384384" fill = "none" stroke = "#0000ff" stroke-width = "1" />
	<path d = "M473 288 L471 288 L471 290 L473 290 L473 288 Z" stroke = "#0000ff" stroke-width = "1" fill = "none" />  <path d="M473.30753856536734 289.6646533384384           A1.956713459983792 1.956713459983792 0 0 1 471.35082574482755 287.70793923901084" fill = "none" stroke = "#0000ff" stroke-width = "1" />
	<path d = "M473 288 L473 286 L471 286 L471 288 L473 288 Z" stroke = "#0000ff" stroke-width = "1" fill = "none" />  <path d="M471.35082574482755 287.70793923901084           A1.2093154245143907 1.2093154245143907 0 0 1 472.56014156453995 286.4986242096946" fill = "none" stroke = "#0000ff" stroke-width = "1" />
</svg>