<svg width="500" height="500" viewbox = "0 0 500 500"  xmlns="http://www.w3.org/2000/svg">
<!--<json>{
  "glyph": "0330,0336,0330,0337,0211,0211,0211,0331,0331,0331,0333,0333,0334,0332,0331,0330,0337,0337,0321,0305,0362,0362,0203,0335,0203,0335,0203,0335,0203,0335,0203,0354,0335,0231,0231,0231,0231,0231,0231,0231,",
  "shapes": [
    "0220:0311,0362,0203,0334,0337,0203,0334,0336,0203,0334,0337,0203,0354,0334,0336,",
    "0221:0334,0311,0305,0362,0203,0335,0350,0335,0337,0203,0335,0335,0335,0335,0203,0354,0335,0335,0335,0336,0305,",
    "0222:0311,0305,0362,0203,0335,0203,0335,0335,0337,0203,0354,0335,0335,0336,",
    "0223:0334,0305,0362,0203,0335,0203,0335,0203,0335,0203,0335,0203,0335,0354,",
    "0224:0304,0335,0305,0311,0362,0203,0334,0203,0334,0203,0334,0203,0334,0203,0354,0334,0334,0337,0362,0203,0335,0335,0203,0335,0335,0203,0335,0335,0203,0335,0335,0203,0354,0336,0335,0335,0335,",
    "0225:0311,0304,0200,0350,0334,0343,0335,0330,0336,0331,0304,0335,",
    "0226:0370,0225,0225,0225,0225,0225,0225,0225,0225,0225,0225,0225,0225,0225,0371,",
    "0227:0304,0335,0305,0311,0334,0337,0362,0203,0335,0335,0203,0335,0335,0203,0335,0335,0203,0335,0335,0203,0354,",
    "0230:0305,0321,0311,0350,0335,0335,0336,0330,0335,0335,0335,0335,0335,0322,0362,0203,0335,0335,0335,0335,0203,0364,0323,0334,0334,0362,0203,0335,0335,0335,0335,0203,0364,0324,0334,0334,0362,0203,0335,0335,0335,0335,0203,0364,0325,0334,0334,0362,0203,0335,0335,0335,0335,0203,0364,0334,0334,0326,0362,0203,0335,0335,0335,0335,0203,0364,0336,0305,",
    "0231:0230,",
    "0232:",
    "0233:",
    "0234:",
    "0235:",
    "0236:",
    "0237:",
    "0240:0334,0336,0336,0366,0337,0337,0333,0335,0335,0336,0336,0367,0334,0337,0337,",
    "0241:",
    "0242:",
    "0243:",
    "0244:",
    "0245:",
    "0246:",
    "0247:",
    "01220:0333,0200,0336,0330,0332,0336,0331,0333,0336,0333,0337,0337,0220,0313,0336,0336,0333,0331,0331,0337,0337,0337,",
    "01221:0333,0200,0336,0330,0332,0331,0336,0330,0333,0337,0221,0304,0335,0313,0336,0333,0331,0337,0337,",
    "01222:0333,0200,0336,0330,0332,0336,0331,0332,0337,0222,0304,0313,0333,0336,0333,0331,0337,0337,",
    "01223:0333,0200,0336,0330,0332,0331,0336,0330,0333,0337,0223,0304,0313,0335,0336,0333,0331,0337,0337,",
    "01224:0333,0200,0336,0330,0332,0336,0331,0332,0337,0224,0304,0313,0336,0334,0333,0333,0333,0331,0337,0337,",
    "01225:0333,0200,0336,0330,0332,0336,0331,0333,0337,0370,0225,0371,0313,0336,0333,0331,0337,0337,",
    "01226:0333,0200,0336,0330,0332,0336,0331,0336,0333,0337,0337,0226,0313,0336,0331,0333,0336,0333,0337,0337,0337,",
    "01227:0333,0200,0336,0330,0332,0336,0331,0332,0337,0227,0334,0334,0304,0336,0313,0334,0333,0336,0333,0331,0337,0337,",
    "01230:0333,0200,0336,0330,0332,0230,0331,0304,0333,0337,",
    "01231:0333,0200,0332,0336,0330,0333,0336,0336,0330,0332,0231,0333,0333,0331,0331,0331,0333,0333,0331,0331,0333,0337,0337,0337,0337,0336,",
    "01232:0333,0200,0336,0330,0332,0331,0232,0331,0331,0331,0333,0337,",
    "01233:0333,0200,0336,0332,0337,0336,0330,0332,0336,0331,0333,0337,0332,0233,0331,0336,0330,0337,0337,",
    "01234:0333,0200,0336,0330,0332,0332,0332,0336,0333,0337,0234,0333,0333,0333,0331,0336,0333,0331,0337,0337,0337,0210,0210,0337,0336,",
    "01235:0333,0200,0235,",
    "01236:0333,0200,0236,",
    "01237:0333,0200,0336,0330,0332,0332,0237,0331,0336,0332,0337,0337,",
    "01240:0333,0200,0336,0332,0336,0330,0337,0240,0333,0336,0330,0337,0337,0331,",
    "01241:0333,0200,0336,0332,0241,0333,0337,",
    "01242:0333,0200,0336,0332,0332,0336,0330,0330,0242,0336,0331,0331,0331,0331,0332,0337,0337,0337,",
    "01243:0333,0200,0336,0332,0332,0243,0337,",
    "01244:0333,0200,0332,0336,0330,0336,0336,0243,0243,0243,0243,0331,0331,0331,0331,0337,0337,0337,",
    "01245:0333,0200,0336,0332,0336,0331,0337,0245,0333,0336,0330,0337,0337,",
    "01246:0333,0200,0330,0332,0336,0331,0336,0332,0337,0246,0333,0333,0336,0333,0331,0331,0337,0337,",
    "01247:0333,0200,0336,0330,0332,0337,0247,0336,0333,0331,0337,"
  ],
  "x0rel": 0.5,
  "y0rel": 0.5,
  "unitrel": 0.1,
  "theta0": -1.570796,
  "width": 500,
  "height": 500,
  "scale": 1,
  "backgroundimage": "",
  "style": {
    "color0": "black",
    "fill0": "black",
    "line0": 2,
    "color1": "black",
    "fill1": "black",
    "line1": 3,
    "color2": "red",
    "fill2": "red",
    "line2": 1,
    "color3": "#FF7900",
    "fill3": "#FF7900",
    "line3": 1,
    "color4": "yellow",
    "fill4": "yellow",
    "line4": 1,
    "color5": "green",
    "fill5": "green",
    "line5": 1,
    "color6": "blue",
    "fill6": "blue",
    "line6": 1,
    "color7": "purple",
    "fill7": "purple",
    "line7": 1
  },
  "controlbuttons": [
    196,
    198,
    200,
    203,
    128,
    216,
    217,
    218,
    219,
    220,
    221,
    222,
    223,
    27,
    8,
    134,
    225,
    192,
    16,
    17,
    145,
    151,
    146
  ]
}</json>-->	<path d = "M400 475 	<path d = "M400 475 L100 475 L8 190 L250 14 L492 190 L400 475 Z" stroke = "#000000" stroke-width = "3" fill = "none" />	<path d = "M343 298 L400 475 L250 366 " stroke = "#ff0000" stroke-width = "1" fill = "none" />	<path d = "M250 366 L100 475 L157 298 " stroke = "#ff7900" stroke-width = "1" fill = "none" />	<path d = "M157 298 L8 190 L193 190 " stroke = "#ffff00" stroke-width = "1" fill = "none" />	<path d = "M193 190 L250 14 L307 190 " stroke = "#008000" stroke-width = "1" fill = "none" />	<path d = "M307 190 L492 190 L343 298 " stroke = "#0000ff" stroke-width = "1" fill = "none" />	<path d = "M285 257 L343 298 L272 298 " stroke = "#ff0000" stroke-width = "1" fill = "none" />	<path d = "M272 298 L250 366 L228 298 " stroke = "#ff7900" stroke-width = "1" fill = "none" />	<path d = "M228 298 L157 298 L215 257 " stroke = "#ffff00" stroke-width = "1" fill = "none" />	<path d = "M215 257 L193 190 L250 231 " stroke = "#008000" stroke-width = "1" fill = "none" />	<path d = "M250 231 L307 190 L285 257 " stroke = "#0000ff" stroke-width = "1" fill = "none" />	<path d = "M258 257 L285 257 L264 273 " stroke = "#ff0000" stroke-width = "1" fill = "none" />	<path d = "M264 273 L272 298 L250 283 " stroke = "#ff7900" stroke-width = "1" fill = "none" />	<path d = "M250 283 L228 298 L236 273 " stroke = "#ffff00" stroke-width = "1" fill = "none" />	<path d = "M236 273 L215 257 L242 257 " stroke = "#008000" stroke-width = "1" fill = "none" />	<path d = "M242 257 L250 231 L258 257 " stroke = "#0000ff" stroke-width = "1" fill = "none" />	<path d = "M250 263 L258 257 L255 267 " stroke = "#ff0000" stroke-width = "1" fill = "none" />	<path d = "M255 267 L264 273 L253 273 " stroke = "#ff7900" stroke-width = "1" fill = "none" />	<path d = "M253 273 L250 283 L247 273 " stroke = "#ffff00" stroke-width = "1" fill = "none" />	<path d = "M247 273 L236 273 L245 267 " stroke = "#008000" stroke-width = "1" fill = "none" />	<path d = "M245 267 L242 257 L250 263 " stroke = "#0000ff" stroke-width = "1" fill = "none" />	<path d = "M249 267 L250 263 L251 267 " stroke = "#ff0000" stroke-width = "1" fill = "none" />	<path d = "M251 267 L255 267 L252 269 " stroke = "#ff7900" stroke-width = "1" fill = "none" />	<path d = "M252 269 L253 273 L250 270 " stroke = "#ffff00" stroke-width = "1" fill = "none" />	<path d = "M250 270 L247 273 L248 269 " stroke = "#008000" stroke-width = "1" fill = "none" />	<path d = "M248 269 L245 267 L249 267 " stroke = "#0000ff" stroke-width = "1" fill = "none" />	<path d = "M249 268 L249 267 L250 268 " stroke = "#ff0000" stroke-width = "1" fill = "none" />	<path d = "M250 268 L251 267 L251 268 " stroke = "#ff7900" stroke-width = "1" fill = "none" />	<path d = "M251 268 L252 269 L250 269 " stroke = "#ffff00" stroke-width = "1" fill = "none" />	<path d = "M250 269 L250 270 L250 269 " stroke = "#008000" stroke-width = "1" fill = "none" />	<path d = "M250 269 L248 269 L249 268 " stroke = "#0000ff" stroke-width = "1" fill = "none" />	<path d = "M250 268 L249 268 L250 268 " stroke = "#ff0000" stroke-width = "1" fill = "none" />	<path d = "M250 268 L250 268 L250 268 " stroke = "#ff7900" stroke-width = "1" fill = "none" />	<path d = "M250 268 L251 268 L250 268 " stroke = "#ffff00" stroke-width = "1" fill = "none" />	<path d = "M250 268 L250 269 L250 269 " stroke = "#008000" stroke-width = "1" fill = "none" />	<path d = "M250 269 L250 269 L250 268 " stroke = "#0000ff" stroke-width = "1" fill = "none" /></svg>